<svg width="268" height="240" viewBox="0 0 268 240" fill="none" xmlns="http://www.w3.org/2000/svg">
<g clip-path="url(#clip0_20_33044)">
<path fill-rule="evenodd" clip-rule="evenodd" d="M63.4802 35.2C63.4802 21.0615 74.9417 9.59998 89.0802 9.59998H178.68C192.819 9.59998 204.28 21.0615 204.28 35.2V99.2751C202.447 96.7702 200.149 94.7313 197.384 93.1584C193.493 90.8373 188.783 89.6768 183.253 89.6768C178.952 89.6768 174.925 90.7349 171.17 92.8512C167.415 94.9674 164.241 98.176 161.647 102.477C161.485 102.74 161.327 103.008 161.171 103.28C161.093 103.114 161.012 102.948 160.93 102.784C158.882 98.6197 155.912 95.4112 152.021 93.1584C148.13 90.8373 143.419 89.6768 137.89 89.6768C133.589 89.6768 129.561 90.7349 125.807 92.8512C122.07 94.9574 118.874 98.1455 116.219 102.415L114.44 91.52H88.4306L92.5266 112.614V150.4H89.0802C84.4954 150.4 80.1921 149.195 76.4698 147.084C82.3685 143.319 86.2802 136.716 86.2802 129.2C86.2802 117.492 76.7887 108 65.0802 108C64.542 108 64.0084 108.02 63.4802 108.059V35.2ZM118.536 150.4H137.992V120.909C137.992 117.632 137.173 115.106 135.535 113.331C133.965 111.556 131.678 110.669 128.674 110.669C126.558 110.669 124.714 111.147 123.144 112.102C121.642 112.99 120.482 114.321 119.663 116.096C118.912 117.803 118.536 119.885 118.536 122.342V150.4ZM164.002 150.4H178.68C180.313 150.4 181.91 150.247 183.458 149.955V120.909C183.458 117.632 182.639 115.106 181 113.331C179.43 111.556 177.143 110.669 174.139 110.669C172.023 110.669 170.18 111.147 168.61 112.102C167.108 112.99 165.947 114.321 165.128 116.096C164.377 117.803 164.002 119.885 164.002 122.342V150.4Z" fill="white"/>
</g>
<path d="M9.04563 231.56C7.97229 231.56 6.99229 231.303 6.10563 230.79C5.26563 230.277 4.58896 229.6 4.07563 228.76C3.56229 227.873 3.30563 226.893 3.30563 225.82C3.30563 224.747 3.56229 223.79 4.07563 222.95C4.58896 222.063 5.26563 221.363 6.10563 220.85C6.99229 220.337 7.97229 220.08 9.04563 220.08C10.119 220.08 11.0756 220.337 11.9156 220.85C12.8023 221.363 13.5023 222.063 14.0156 222.95C14.529 223.79 14.7856 224.747 14.7856 225.82C14.7856 226.893 14.529 227.873 14.0156 228.76C13.5023 229.6 12.8023 230.277 11.9156 230.79C11.0756 231.303 10.119 231.56 9.04563 231.56ZM21.0025 191.38H30.1025L32.4825 205.66V231H23.3825V204.33L21.0025 191.38ZM47.1125 190.4C50.6125 190.4 53.5758 191.147 56.0025 192.64C58.4758 194.133 60.3425 196.28 61.6025 199.08C62.9092 201.833 63.5625 205.17 63.5625 209.09V231H54.4625V210.56C54.4625 206.407 53.5758 203.28 51.8025 201.18C50.0758 199.033 47.5325 197.96 44.1725 197.96C41.7925 197.96 39.7158 198.543 37.9425 199.71C36.2158 200.83 34.8625 202.417 33.8825 204.47C32.9492 206.523 32.4825 208.927 32.4825 211.68L29.2625 209.93C29.6825 205.823 30.6858 202.323 32.2725 199.43C33.9058 196.537 35.9825 194.32 38.5025 192.78C41.0692 191.193 43.9392 190.4 47.1125 190.4ZM78.1225 190.4C81.6225 190.4 84.6092 191.147 87.0825 192.64C89.5558 194.133 91.4225 196.28 92.6825 199.08C93.9892 201.833 94.6425 205.17 94.6425 209.09V231H85.5425V210.56C85.5425 206.407 84.6558 203.28 82.8825 201.18C81.1558 199.033 78.6125 197.96 75.2525 197.96C72.8725 197.96 70.7958 198.543 69.0225 199.71C67.2958 200.83 65.9425 202.417 64.9625 204.47C64.0292 206.523 63.5625 208.927 63.5625 211.68L60.3425 209.93C60.7625 205.823 61.7658 202.323 63.3525 199.43C64.9858 196.537 67.0625 194.32 69.5825 192.78C72.1492 191.193 74.9958 190.4 78.1225 190.4ZM120.352 231.98C116.712 231.98 113.608 231.233 111.042 229.74C108.522 228.247 106.585 226.1 105.232 223.3C103.878 220.5 103.202 217.163 103.202 213.29V191.38H112.302V211.89C112.302 215.997 113.235 219.123 115.102 221.27C117.015 223.37 119.745 224.42 123.292 224.42C125.858 224.42 128.052 223.86 129.872 222.74C131.738 221.62 133.185 220.033 134.212 217.98C135.238 215.88 135.752 213.453 135.752 210.7L138.902 212.45C138.528 216.51 137.502 220.01 135.822 222.95C134.142 225.843 131.972 228.083 129.312 229.67C126.652 231.21 123.665 231.98 120.352 231.98ZM138.062 231L135.752 216.72V191.38H144.852V218.12L147.162 231H138.062ZM196.051 218.96C196.051 221.62 195.305 223.93 193.811 225.89C192.318 227.85 190.055 229.367 187.021 230.44C183.988 231.467 180.185 231.98 175.611 231.98C170.898 231.98 166.815 231.397 163.361 230.23C159.908 229.017 157.225 227.337 155.311 225.19C153.445 222.997 152.441 220.477 152.301 217.63H161.541C161.821 219.123 162.568 220.453 163.781 221.62C165.041 222.74 166.675 223.603 168.681 224.21C170.735 224.817 173.068 225.12 175.681 225.12C179.461 225.12 182.308 224.677 184.221 223.79C186.135 222.857 187.091 221.457 187.091 219.59C187.091 218.33 186.438 217.373 185.131 216.72C183.871 216.067 181.468 215.577 177.921 215.25L170.151 214.55C165.951 214.177 162.638 213.43 160.211 212.31C157.785 211.143 156.058 209.743 155.031 208.11C154.005 206.43 153.491 204.657 153.491 202.79C153.491 200.083 154.331 197.82 156.011 196C157.691 194.18 160.025 192.803 163.011 191.87C165.998 190.89 169.475 190.4 173.441 190.4C177.548 190.4 181.211 190.983 184.431 192.15C187.651 193.27 190.218 194.857 192.131 196.91C194.045 198.917 195.118 201.25 195.351 203.91H186.111C185.925 202.837 185.365 201.81 184.431 200.83C183.545 199.803 182.168 198.963 180.301 198.31C178.481 197.61 176.031 197.26 172.951 197.26C169.685 197.26 167.118 197.68 165.251 198.52C163.431 199.36 162.521 200.597 162.521 202.23C162.521 203.257 163.081 204.143 164.201 204.89C165.321 205.59 167.398 206.08 170.431 206.36L180.441 207.27C184.455 207.643 187.581 208.367 189.821 209.44C192.108 210.467 193.718 211.797 194.651 213.43C195.585 215.063 196.051 216.907 196.051 218.96ZM203.43 191.1L207.98 191.94L212.53 191.1V231H203.43V191.1ZM207.98 186.13C206.253 186.13 204.83 185.663 203.71 184.73C202.59 183.75 202.03 182.49 202.03 180.95C202.03 179.41 202.59 178.173 203.71 177.24C204.83 176.26 206.253 175.77 207.98 175.77C209.753 175.77 211.176 176.26 212.25 177.24C213.37 178.173 213.93 179.41 213.93 180.95C213.93 182.49 213.37 183.75 212.25 184.73C211.176 185.663 209.753 186.13 207.98 186.13ZM265.91 215.39C265.443 218.657 264.16 221.55 262.06 224.07C259.96 226.543 257.277 228.48 254.01 229.88C250.743 231.28 247.103 231.98 243.09 231.98C238.517 231.98 234.48 231.117 230.98 229.39C227.527 227.617 224.82 225.167 222.86 222.04C220.9 218.913 219.92 215.297 219.92 211.19C219.92 207.083 220.9 203.467 222.86 200.34C224.82 197.213 227.527 194.787 230.98 193.06C234.48 191.287 238.517 190.4 243.09 190.4C247.103 190.4 250.743 191.1 254.01 192.5C257.277 193.9 259.96 195.86 262.06 198.38C264.16 200.853 265.443 203.747 265.91 207.06H256.74C256.087 204.073 254.523 201.74 252.05 200.06C249.577 198.38 246.59 197.54 243.09 197.54C240.29 197.54 237.84 198.1 235.74 199.22C233.64 200.293 232.007 201.857 230.84 203.91C229.72 205.917 229.16 208.343 229.16 211.19C229.16 213.99 229.72 216.417 230.84 218.47C232.007 220.523 233.64 222.11 235.74 223.23C237.84 224.303 240.29 224.84 243.09 224.84C246.637 224.84 249.647 223.977 252.12 222.25C254.593 220.523 256.133 218.237 256.74 215.39H265.91Z" fill="white"/>
<defs>
<clipPath id="clip0_20_33044">
<rect width="160" height="160" fill="white" transform="translate(54)"/>
</clipPath>
</defs>
</svg>
