<svg width="400" height="400" viewBox="0 0 400 400" fill="none" xmlns="http://www.w3.org/2000/svg">
<g clip-path="url(#clip0_1_242)">
<path fill-rule="evenodd" clip-rule="evenodd" d="M23.7006 88C23.7006 52.6538 52.3543 24 87.7006 24H311.701C347.047 24 375.701 52.6538 375.701 88V248.188C371.119 241.926 365.372 236.828 358.461 232.896C348.733 227.093 336.957 224.192 323.133 224.192C312.381 224.192 302.311 226.837 292.925 232.128C283.538 237.419 275.602 245.44 269.117 256.192C268.713 256.851 268.317 257.521 267.928 258.201C267.731 257.785 267.53 257.371 267.325 256.96C262.205 246.549 254.781 238.528 245.053 232.896C235.325 227.093 223.549 224.192 209.725 224.192C198.973 224.192 188.903 226.837 179.517 232.128C170.175 237.393 162.185 245.364 155.548 256.039L151.101 228.8H86.0766L96.3166 281.536V376H87.7006C76.2385 376 65.4802 372.987 56.1746 367.709C70.9213 358.298 80.7006 341.791 80.7006 323C80.7006 293.729 56.9716 270 27.7006 270C26.3549 270 25.021 270.05 23.7006 270.149V88ZM161.341 376H209.981V302.272C209.981 294.08 207.933 287.765 203.837 283.328C199.911 278.891 194.194 276.672 186.685 276.672C181.394 276.672 176.786 277.867 172.861 280.256C169.106 282.475 166.205 285.803 164.157 290.24C162.279 294.507 161.341 299.712 161.341 305.856V376ZM275.005 376H311.701C315.782 376 319.775 375.618 323.645 374.887V302.272C323.645 294.08 321.597 287.765 317.501 283.328C313.575 278.891 307.858 276.672 300.349 276.672C295.058 276.672 290.45 277.867 286.525 280.256C282.77 282.475 279.869 285.803 277.821 290.24C275.943 294.507 275.005 299.712 275.005 305.856V376Z" fill="white"/>
</g>
<defs>
<clipPath id="clip0_1_242">
<rect width="400" height="400" fill="white"/>
</clipPath>
</defs>
</svg>
